<svg width="16" height="15" viewBox="0 0 16 15" fill="none" xmlns="http://www.w3.org/2000/svg">
<g clip-path="url(#clip0_7_195)">
<path opacity="0.4" d="M5.77778 10.3125C4.63889 10.3125 3.58056 10.04 2.68611 9.58008C2.08056 9.95215 1.23889 10.3125 0.222222 10.3125C0.178999 10.313 0.136625 10.2998 0.100508 10.2748C0.0643911 10.2497 0.0361692 10.2139 0.0194444 10.1719C0.00191262 10.1298 -0.00348495 10.0831 0.00392405 10.0378C0.0113331 9.9925 0.0312212 9.95048 0.0611111 9.91699C0.0694444 9.9082 0.683333 9.20508 1.05556 8.32031C0.391667 7.55566 0 6.62988 0 5.625C0 3.03516 2.58611 0.9375 5.77778 0.9375C8.96944 0.9375 11.5556 3.03516 11.5556 5.625C11.5556 8.21484 8.96944 10.3125 5.77778 10.3125Z" fill="#5F5F75"/>
<path d="M16 9.375C16 10.3799 15.6083 11.3086 14.9444 12.0703C15.3167 12.958 15.9305 13.6582 15.9389 13.667C15.9688 13.7005 15.9887 13.7425 15.9961 13.7878C16.0035 13.8331 15.9981 13.8798 15.9805 13.9219C15.9637 13.9638 15.9354 13.9995 15.8993 14.0245C15.8632 14.0496 15.821 14.0628 15.7778 14.0625C14.7611 14.0625 13.9194 13.7021 13.3139 13.3301C12.4194 13.793 11.3611 14.0625 10.2222 14.0625C7.82777 14.0625 5.77222 12.8789 4.89722 11.1943C5.1896 11.2293 5.48353 11.2479 5.77777 11.25C9.45277 11.25 12.4444 8.72754 12.4444 5.625C12.445 5.42808 12.433 5.23133 12.4083 5.03613C14.5139 5.73633 16 7.41504 16 9.375Z" fill="#5F5F75"/>
</g>
<defs>
<clipPath id="clip0_7_195">
<rect width="16" height="15" fill="white"/>
</clipPath>
</defs>
</svg>
