<svg width="18" height="15" viewBox="0 0 18 15" fill="none" xmlns="http://www.w3.org/2000/svg">
<g clip-path="url(#clip0_7_181)">
<path opacity="0.4" d="M8.63193 12L5.99521 14.7136C5.50302 15.2135 4.50107 14.9416 4.50107 14.2518V10.4653L14.354 3.07615C14.5473 2.93291 14.8215 3.15216 14.6563 3.31878L6.74017 11.3384L8.63193 12Z" fill="#5F5F75" fill-opacity="0.5"/>
<path d="M17.9856 0.818542L15.4543 13.447C15.4331 13.5514 15.3838 13.6505 15.3101 13.7369C15.2364 13.8232 15.1402 13.8946 15.0287 13.9458C14.9171 13.9969 14.7932 14.0265 14.666 14.0322C14.5388 14.038 14.4117 14.0198 14.2942 13.979L6.74016 11.3385L14.6563 3.3188C14.8215 3.15218 14.5473 2.93293 14.354 3.07617L4.50001 10.4653L0.51645 9.17408C0.369947 9.12294 0.243788 9.03844 0.152491 8.93031C0.0611943 8.82218 0.00847141 8.69482 0.000390317 8.56287C-0.00769078 8.43092 0.0291983 8.29976 0.106812 8.18448C0.184426 8.0692 0.29961 7.97448 0.439107 7.91123L16.7344 0.094452C17.3422 -0.197873 18.1055 0.228922 17.9856 0.818542Z" fill="#5F5F75" fill-opacity="0.5"/>
</g>
<defs>
<clipPath id="clip0_7_181">
<rect width="18" height="14.9671" fill="white"/>
</clipPath>
</defs>
</svg>
