<svg width="15" height="15" viewBox="0 0 15 15" fill="none" xmlns="http://www.w3.org/2000/svg">
<g clip-path="url(#clip0_7_201)">
<path opacity="0.4" d="M14.5881 6.61934L8.38066 0.411914C8.11695 0.148187 7.75928 1.74901e-05 7.38633 0L1.40625 0C1.03329 0 0.675604 0.148158 0.411881 0.411881C0.148158 0.675604 0 1.03329 0 1.40625L0 7.38633C1.74901e-05 7.75928 0.148187 8.11695 0.411914 8.38066L6.61934 14.5881C6.88306 14.8518 7.24073 14.9999 7.61367 14.9999C7.98662 14.9999 8.34429 14.8518 8.60801 14.5881L14.5881 8.60801C14.8518 8.34429 14.9999 7.98662 14.9999 7.61367C14.9999 7.24073 14.8518 6.88306 14.5881 6.61934ZM3.28125 4.6875C3.00312 4.6875 2.73124 4.60502 2.49998 4.4505C2.26872 4.29598 2.08848 4.07636 1.98204 3.8194C1.87561 3.56244 1.84776 3.27969 1.90202 3.0069C1.95628 2.73412 2.09021 2.48355 2.28688 2.28688C2.48355 2.09021 2.73412 1.95628 3.0069 1.90202C3.27969 1.84776 3.56244 1.87561 3.8194 1.98204C4.07636 2.08848 4.29598 2.26872 4.4505 2.49998C4.60502 2.73124 4.6875 3.00312 4.6875 3.28125C4.6875 3.65421 4.53934 4.0119 4.27562 4.27562C4.0119 4.53934 3.65421 4.6875 3.28125 4.6875Z" fill="#5F5F75"/>
</g>
<defs>
<clipPath id="clip0_7_201">
<rect width="15" height="15" fill="white"/>
</clipPath>
</defs>
</svg>
